<svg width="36" height="36" viewBox="0 0 36 36" fill="none" xmlns="http://www.w3.org/2000/svg">
<path d="M17.7756 27.4938C14.7534 23.9712 9.9394 23.0875 3.45288 25.1002L5.7524 13.268C11.9501 11.6421 15.717 12.5002 17.7756 15.1647M17.7756 27.4938V24.2421M17.7756 27.4938C21.6829 24.3723 24.5646 22.8647 32.5582 25.1002L30.1054 13.268L28.9666 13.0196M17.7756 15.1647V22.0518M17.7756 15.1647C18.7517 14.1782 19.299 13.6351 20.2722 13.268" stroke="white" stroke-miterlimit="1.65838" stroke-linecap="round" stroke-linejoin="round"/>
<path fill-rule="evenodd" clip-rule="evenodd" d="M17.5933 23.7325C18.2421 21.923 18.6769 20.7106 19.8997 18.7548C19.396 16.971 19.5211 15.8652 20.0968 14.2161C20.0968 14.9387 20.1844 15.5032 20.4253 16.2936C20.3596 14.0355 21.0166 12.1839 23.6446 9.51936V11.5968C23.9481 9.90436 24.1921 9.06774 24.4987 8.59355L27.6743 5.52258V7.10323C27.6852 7.04985 27.6959 6.99778 27.7063 6.94688C27.878 6.10901 27.9835 5.59388 28.2656 5.02581L31.3535 2C32.6041 3.76113 32.0613 5.60877 31.7086 6.80927C31.6996 6.83994 31.6907 6.87019 31.682 6.9L29.9738 8.25484C30.5403 8.06674 30.8823 7.9145 31.5725 7.4871C29.7491 11.2487 28.6192 12.4913 26.426 13.2677C27.1808 13.2306 27.6786 13.1309 28.3532 12.8839C26.7719 15.7889 25.5493 16.9072 22.681 17.8516C23.3901 17.9061 23.7934 17.8498 24.5206 17.6258C22.8679 18.8196 22.0815 19.0223 20.7879 19.3557L20.7538 19.3645C19.5452 21.2286 18.4324 22.9097 17.5564 23.8355L17.5933 23.7325ZM25.2215 11.6194C21.7298 15.9427 20.4588 17.9738 19.3084 20.9677L21.1261 18.0097C22.8239 15.3092 23.7929 13.9829 25.55 11.9129C28.2656 8.90968 30.1709 6.3129 30.8279 4.89032C29.1132 7.3774 27.7728 8.88403 25.2215 11.6194Z" fill="white"/>
<path fill-rule="evenodd" clip-rule="evenodd" d="M17.5933 23.7325C18.2421 21.923 18.6769 20.7106 19.8997 18.7548C19.396 16.971 19.5211 15.8652 20.0968 14.2161C20.0968 14.9387 20.1844 15.5032 20.4253 16.2936C20.3596 14.0355 21.0166 12.1839 23.6446 9.51936V11.5968C23.9481 9.90436 24.1921 9.06774 24.4987 8.59355L27.6743 5.52258V7.10323C27.6852 7.04985 27.6959 6.99778 27.7063 6.94688C27.878 6.10901 27.9835 5.59388 28.2656 5.02581L31.3535 2C32.6041 3.76113 32.0613 5.60877 31.7086 6.80927C31.6996 6.83994 31.6907 6.87019 31.682 6.9L29.9738 8.25484C30.5403 8.06674 30.8823 7.9145 31.5725 7.4871C29.7491 11.2487 28.6192 12.4913 26.426 13.2677C27.1808 13.2306 27.6786 13.1309 28.3532 12.8839C26.7719 15.7889 25.5493 16.9072 22.681 17.8516C23.3901 17.9061 23.7934 17.8498 24.5206 17.6258C22.8679 18.8196 22.0815 19.0223 20.7879 19.3557L20.7538 19.3645C19.5452 21.2286 18.4324 22.9097 17.5564 23.8355L17.5933 23.7325ZM25.2215 11.6194C21.7298 15.9427 20.4588 17.9738 19.3084 20.9677L21.1261 18.0097C22.8239 15.3092 23.7929 13.9829 25.55 11.9129C28.2656 8.90968 30.1709 6.3129 30.8279 4.89032C29.1132 7.3774 27.7728 8.88403 25.2215 11.6194Z" fill="url(#paint0_linear_723_116)"/>
<path d="M20.6882 21.69C19.3135 22.5129 18.6827 22.9837 17.7317 23.8352L21.9365 21.5094C23.7492 21.2722 24.7516 21.2046 26.6889 20.3804C28.4109 19.5529 29.1382 19.0322 29.5578 17.8965C27.3578 18.1613 26.0971 18.412 23.7323 19.2965C22.9166 19.4729 22.5453 19.7575 22.0241 20.561V20.1094C21.1208 20.7119 20.8482 21.0593 20.6882 21.69Z" fill="#959595"/>
<path fill-rule="evenodd" clip-rule="evenodd" d="M4.43833 15.3515C4.30693 15.1483 3.8432 15.2496 3.64992 15.5773L1 28.6515C1.01564 28.9595 1.10906 29.0469 1.4818 28.9902L15.2351 28.4709C16.3958 30.2999 19.2209 30.5934 20.3816 28.4709L34.2883 28.9445C34.4208 28.9445 34.5329 28.9537 34.6261 28.9614C34.9947 28.9917 35.0676 28.9977 34.9453 28.3128L32.4048 15.5547C32.2712 15.2199 31.7259 15.1483 31.6602 15.3289L34.135 28.2451L20.1188 27.7257C22.8699 26.8136 26.0976 26.5289 32.9742 27.8386C27.0174 26.1225 23.0304 26.3079 19.0676 27.658C21.6606 25.7208 24.2142 25.3936 27.9372 25.716C24.0828 24.7676 21.1167 25.8172 18.323 27.4999H17.447C14.0744 25.1515 10.467 24.8018 7.17585 25.7386C10.544 25.2491 13.6583 25.5128 16.7243 27.658C11.7092 25.8289 7.62309 26.7326 2.97102 27.7934C8.93084 26.8773 12.7385 26.5741 15.5198 27.7934L1.87601 28.1999L4.43833 15.3515ZM17.8193 28.3292C17.3342 28.461 16.8524 28.3358 15.9359 28.0582C16.6586 29.8873 19.2866 29.5711 19.7027 28.0582C19.6825 28.0668 19.6626 28.0752 19.6429 28.0836C19.0119 28.3507 18.6402 28.508 17.8193 28.3292Z" fill="white"/>
<defs>
<linearGradient id="paint0_linear_723_116" x1="17.5565" y1="12.9177" x2="32.1343" y2="12.9177" gradientUnits="userSpaceOnUse">
<stop stop-color="#FBCA29"/>
<stop offset="0.005618" stop-color="#EBD27B"/>
<stop offset="0.151042" stop-color="#D7B860"/>
<stop offset="0.252809" stop-color="#E7CE77"/>
<stop offset="0.30313" stop-color="#EBD27B"/>
<stop offset="0.595506" stop-color="#C2922E"/>
<stop offset="0.603529" stop-color="#C2922E"/>
<stop offset="0.870786" stop-color="#D0B057"/>
<stop offset="1" stop-color="#AB7B2A"/>
</linearGradient>
</defs>
</svg>
