<svg width="512" height="512" viewBox="0 0 512 512" fill="none" xmlns="http://www.w3.org/2000/svg">
<g clip-path="url(#clip0_721_101)">
<path d="M252.915 412.804C210.344 364.746 142.536 352.69 51.1671 380.15L83.5579 218.724C170.859 196.543 223.918 208.25 252.915 244.601M252.915 412.804V368.443M252.915 412.804C307.953 370.219 348.545 349.651 461.141 380.15L426.591 218.724L410.55 215.335M252.915 244.601V338.561M252.915 244.601C266.665 231.142 274.373 223.733 288.082 218.724" stroke="white" stroke-width="9" stroke-miterlimit="1.65838" stroke-linecap="round" stroke-linejoin="round"/>
<path fill-rule="evenodd" clip-rule="evenodd" d="M250.35 361.494C259.49 336.807 265.614 320.265 282.838 293.584C275.743 269.247 277.506 254.16 285.614 231.663C285.614 241.521 286.848 249.223 290.242 260.005C289.316 229.198 298.571 203.937 335.589 167.585V195.927C339.864 172.838 343.301 161.424 347.62 154.955L392.35 113.058V134.623C392.504 133.894 392.654 133.184 392.801 132.49C395.219 121.059 396.705 114.031 400.679 106.281L444.175 65C461.79 89.0268 454.145 114.234 449.177 130.612C449.05 131.031 448.925 131.443 448.802 131.85L424.74 150.334C432.72 147.768 437.537 145.691 447.26 139.86C421.575 191.179 405.659 208.131 374.766 218.724C385.398 218.217 392.41 216.857 401.913 213.487C379.638 253.12 362.418 268.377 322.015 281.261C332.003 282.005 337.684 281.236 347.928 278.181C324.648 294.468 313.571 297.233 295.349 301.781L294.869 301.902C277.845 327.332 262.17 350.268 249.83 362.898L250.35 361.494ZM357.799 196.235C308.617 255.219 290.713 282.929 274.509 323.774L300.113 283.418C324.028 246.575 337.676 228.481 362.427 200.24C400.679 159.268 427.517 123.84 436.771 104.432C412.618 138.363 393.738 158.918 357.799 196.235Z" fill="white"/>
<path fill-rule="evenodd" clip-rule="evenodd" d="M250.35 361.494C259.49 336.807 265.614 320.265 282.838 293.584C275.743 269.247 277.506 254.16 285.614 231.663C285.614 241.521 286.848 249.223 290.242 260.005C289.316 229.198 298.571 203.937 335.589 167.585V195.927C339.864 172.838 343.301 161.424 347.62 154.955L392.35 113.058V134.623C392.504 133.894 392.654 133.184 392.801 132.49C395.219 121.059 396.705 114.031 400.679 106.281L444.175 65C461.79 89.0268 454.145 114.234 449.177 130.612C449.05 131.031 448.925 131.443 448.802 131.85L424.74 150.334C432.72 147.768 437.537 145.691 447.26 139.86C421.575 191.179 405.659 208.131 374.766 218.724C385.398 218.217 392.41 216.857 401.913 213.487C379.638 253.12 362.418 268.377 322.015 281.261C332.003 282.005 337.684 281.236 347.928 278.181C324.648 294.468 313.571 297.233 295.349 301.781L294.869 301.902C277.845 327.332 262.17 350.268 249.83 362.898L250.35 361.494ZM357.799 196.235C308.617 255.219 290.713 282.929 274.509 323.774L300.113 283.418C324.028 246.575 337.676 228.481 362.427 200.24C400.679 159.268 427.517 123.84 436.771 104.432C412.618 138.363 393.738 158.918 357.799 196.235Z" fill="url(#paint0_linear_721_101)"/>
<path d="M293.943 333.632C274.579 344.858 265.694 351.281 252.298 362.898L311.527 331.167C337.06 327.931 351.179 327.009 378.468 315.764C402.724 304.475 412.969 297.371 418.879 281.877C387.891 285.489 370.132 288.91 336.823 300.977C325.332 303.384 320.102 307.267 312.761 318.229V312.067C300.037 320.287 296.197 325.027 293.943 333.632Z" fill="#959595"/>
<path fill-rule="evenodd" clip-rule="evenodd" d="M65.0488 247.151C63.1979 244.378 56.6659 245.76 53.9434 250.232L16.6169 428.601C16.8373 432.802 18.1531 433.995 23.4036 433.222L217.131 426.136C233.481 451.09 273.275 455.095 289.625 426.136L485.512 432.598C487.379 432.598 488.958 432.724 490.27 432.829C495.462 433.242 496.49 433.324 494.766 423.98L458.982 249.924C457.099 245.356 449.419 244.379 448.494 246.843L483.352 423.056L285.923 415.97C324.673 403.526 370.139 399.643 467.003 417.511C383.095 394.098 326.934 396.628 271.116 415.046C307.64 388.617 343.609 384.153 396.051 388.553C341.758 375.614 299.979 389.933 260.627 412.89H248.288C200.781 380.851 149.967 376.08 103.609 388.861C151.052 382.183 194.92 385.78 238.108 415.046C167.465 390.093 109.909 402.421 44.3804 416.895C128.33 404.395 181.964 400.259 221.141 416.895L28.9563 422.44L65.0488 247.151ZM253.532 424.204C246.698 426.002 239.912 424.294 227.003 420.507C237.183 445.46 274.201 441.147 280.062 420.507C279.777 420.623 279.496 420.739 279.218 420.853C270.33 424.497 265.095 426.644 253.532 424.204Z" fill="white" stroke="white" stroke-miterlimit="1.65838" stroke-linecap="square"/>
</g>
<defs>
<linearGradient id="paint0_linear_721_101" x1="249.831" y1="213.948" x2="455.174" y2="213.948" gradientUnits="userSpaceOnUse">
<stop stop-color="#FBCA29"/>
<stop offset="0.005618" stop-color="#EBD27B"/>
<stop offset="0.151042" stop-color="#D7B860"/>
<stop offset="0.252809" stop-color="#E7CE77"/>
<stop offset="0.30313" stop-color="#EBD27B"/>
<stop offset="0.595506" stop-color="#C2922E"/>
<stop offset="0.603529" stop-color="#C2922E"/>
<stop offset="0.870786" stop-color="#D0B057"/>
<stop offset="1" stop-color="#AB7B2A"/>
</linearGradient>
<clipPath id="clip0_721_101">
<rect width="480" height="382" fill="white" transform="translate(16 65)"/>
</clipPath>
</defs>
</svg>
