<?xml version="1.0" encoding="UTF-8"?>
<svg xmlns="http://www.w3.org/2000/svg" width="400" height="400" viewBox="0 0 400 400">
  <defs>
    <filter id="softBlur" x="-20%" y="-20%" width="140%" height="140%">
      <feGaussianBlur stdDeviation="6" />
    </filter>
  </defs>
  <g filter="url(#softBlur)" fill="#0C6E78" fill-opacity="0.25">
    <!-- Head -->
    <circle cx="180" cy="110" r="26" />
    <!-- Torso / shoulders -->
    <path d="M150 140 C170 130 205 130 220 150 C235 170 230 200 215 220 L190 235 L160 230 C150 200 150 160 150 140 Z" />
    <!-- Bent front leg -->
    <path d="M190 236 L215 230 C235 228 255 240 265 255 C275 270 275 285 260 292 C245 299 225 294 215 280 L200 260 Z" />
    <!-- Rear leg / seat -->
    <path d="M160 230 L145 250 C135 265 130 285 140 295 C150 305 170 300 178 288 L190 270 L175 245 Z" />
    <!-- Arm resting on knee -->
    <path d="M220 170 L250 165 L260 175 L250 190 L220 190 Z" />
  </g>
</svg>